# xmcd
#
# Track frame offsets: 
#        150
#        19690
#        42212
#        70532
#        87705
#        109502
#        127140
#        149985
#        170177
#        190107
#        210220
#        229490
#
# Disc length: 3365 seconds
#
# Revision: 1
# Processed by: cddbd v1.5.2PL0 Copyright (c) Steve Scherf et al.
# Submitted via: ExactAudioCopyFreeDBPlugin 1.0
#
DISCID=b10d230c
DTITLE=Kristine - Tenderness
DYEAR=1998
DGENRE=R&B
TTITLE0=I Need A Little Tenderness
TTITLE1=I'll Hurt You
TTITLE2=Move On
TTITLE3=It's A Bell Thang ft. Dexter Stanley
TTITLE4=I Can Do Lonely
TTITLE5=My Love
TTITLE6=Too Weak To Walk Away
TTITLE7=Your Used To Be
TTITLE8=Candy
TTITLE9=Don't Know You
TTITLE10=I'm Still Feeling You
TTITLE11=I Need A Little Tenderness [Bonus Cut]
EXTD=
EXTT0=
EXTT1=
EXTT2=
EXTT3=
EXTT4=
EXTT5=
EXTT6=
EXTT7=
EXTT8=
EXTT9=
EXTT10=
EXTT11=
PLAYORDER=
